# xmcd
#
# Track frame offsets: 
#        150
#        13787
#        27694
#        38637
#        63172
#        73619
#        87806
#        100874
#        112845
#        123194
#
# Disc length: 1775 seconds
#
# Revision: 0
# Processed by: cddbd v1.4PL0 Copyright (c) Steve Scherf et al.
# Submitted via: ExactAudioCopy v0.90b4
#
DISCID=7706ed0a
DTITLE=David Allan Coe - Underground Album
DYEAR=1982
DGENRE=Country
TTITLE0=Rock a Roll Fever
TTITLE1=Panheads Forever
TTITLE2=Nigger Fucker
TTITLE3=Coffee
TTITLE4=One Monkey
TTITLE5=One More Time
TTITLE6=Little Sussie Shallow Throat
TTITLE7=Pick Em, Lick Em, Stick Em
TTITLE8=Don't Bite the Dick
TTITLE9=Fuckin In the Butt
EXTD=
EXTT0=
EXTT1=
EXTT2=
EXTT3=
EXTT4=
EXTT5=
EXTT6=
EXTT7=
EXTT8=
EXTT9=
PLAYORDER=
